400 0 4 0        
7 Unknown 13 ACIS 5.0.1 NT 24 Mon May 18 09:10:30 2026
1000 9.9999999999999995e-007 1e-010 
-0 body $-1 $5 $-1 $4 #                                                                                            
-1 body $-1 $114 $-1 $113 #                                                                                        
-2 body $-1 $223 $-1 $222 #                                                                                        
-3 body $-1 $332 $-1 $331 #                                                                                        
-4 transform $-1 1 0 0 0 1 0 0 0 1 0 0 0 1 0 0 0 #
-5 lump $-1 $-1 $6 $0 #
-6 shell $-1 $-1 $-1 $7 $-1 $5 #
-7 face $-1 $18 $9 $6 $-1 $8 forward single #
-8 spline-surface $-1 forward { exactsur nubs 1 1 open open none none 2 2
        0 1 2.9000000000000004 1 
        -0.02989529957789383 1 5.9595170840925693 1 
        6.1177132290579283e-20 0.029822476130654588 0.41864174929374837 
        2.8682984718885169 -7.1959464784041027e-06 0.84522593421598591 
        -1.2195434405718173e-17 -5.9450000000000021 0.00084146160950049342 
        2.8682984718885169 -5.974829672077135 0.42742564653173803 
        0
        0
        0
        0
        0
        0
        0
        F 0 F 2.9000000000000004 F -0.02989529957789383 F 5.9595170840925693 } F 0 F 2.9000000000000004 F -0.02989529957789383 F 5.9595170840925693 #
-9 loop $-1 $-1 $10 $7 #
-10 coedge $-1 $12 $16 $25 $73 reversed $9 $11 #
-11 pcurve $-1 0 forward { exppc nubs 1 open 2
        -0.99797995735246625 1 -0 1 
        2.2159606535342796e-16 5.9595170840925693 
        0 0 
        0
        spline 0 { ref 0 } F 0 F 2.9000000000000004 F -0.02989529957789383 F 5.9595170840925693 
        } 0 0 #
-12 coedge $-1 $14 $10 $49 $75 reversed $9 $13 #
-13 pcurve $-1 0 forward { exppc nubs 1 open 2
        -4 1 -3 1 
        0 0 
        2.8999847885936223 -0.02989529957789383 
        0
        spline 0 { ref 0 } F 0 F 2.9000000000000004 F -0.02989529957789383 F 5.9595170840925693 
        } 0 0 #
-14 coedge $-1 $16 $12 $32 $93 reversed $9 $15 #
-15 pcurve $-1 0 forward { exppc nubs 1 open 2
        -3 1 -2.002267729450327 1 
        2.8999847885936223 -0.02989529957789383 
        2.8999999655046458 5.9296145873547355 
        0
        spline 0 { ref 0 } F 0 F 2.9000000000000004 F -0.02989529957789383 F 5.9595170840925693 
        } 0 0 #
-16 coedge $-1 $10 $14 $65 $85 reversed $9 $17 #
-17 pcurve $-1 0 forward { exppc nubs 3 open 2
        -2.90015414422097 3 -0 3 
        2.8999999655046458 5.9296145873547355 
        1.9333333103363763 5.939582075598933 
        0.96666665516818795 5.9495495798457512 
        2.2159606535342796e-16 5.9595170840925693 
        0
        spline 0 { ref 0 } F 0 F 2.9000000000000004 F -0.02989529957789383 F 5.9595170840925693 
        } 0 0 #
-18 face $-1 $29 $20 $6 $-1 $19 forward single #
-19 spline-surface $-1 forward { exactsur nubs 1 1 open open none none 2 2
        0 1 0.10000000000000009 1 
        -0.99797995735246625 1 -0 1 
        -8.8817841970012523e-16 -5.9450000000000003 0.00084146160950054893 
        -8.8817841970012523e-16 -5.9450000000000003 0.10084146160950058 
        -8.8817841970012523e-16 0 0.41655635861367024 
        -8.8817841970012523e-16 0 0.51655635861367033 
        0
        0
        0
        0
        0
        0
        0
        F 0 F 0.10000000000000009 F -0.99797995735246625 F -0 } F 0 F 0.10000000000000009 F -0.99797995735246625 F -0 #
-20 loop $-1 $-1 $21 $18 #
-21 coedge $-1 $23 $27 $60 $79 reversed $20 $22 #
-22 pcurve $-1 0 forward { exppc nubs 1 open 2
        -0.99797995735246625 1 -0 1 
        0.10000000000000009 -0.99797995735246625 
        0.10000000000000009 0 
        0
        spline 0 { ref 5 } F 0 F 0.10000000000000009 F -0.99797995735246625 F -0 
        } 0 0 #
-23 coedge $-1 $25 $21 $43 $77 reversed $20 $24 #
-24 pcurve $-1 0 forward { exppc nubs 1 open 2
        -0.10000000000000009 1 -0 1 
        0.10000000000000009 0 
        0 0 
        0
        spline 0 { ref 5 } F 0 F 0.10000000000000009 F -0.99797995735246625 F -0 
        } 0 0 #
-25 coedge $-1 $27 $23 $10 $73 forward $20 $26 #
-26 pcurve $-1 0 forward { exppc nubs 1 open 2
        -0 1 0.99797995735246625 1 
        0 0 
        0 -0.99797995735246625 
        0
        spline 0 { ref 5 } F 0 F 0.10000000000000009 F -0.99797995735246625 F -0 
        } 0 0 #
-27 coedge $-1 $21 $25 $71 $87 reversed $20 $28 #
-28 pcurve $-1 0 forward { exppc nubs 1 open 2
        0 1 0.10000000000000009 1 
        0 -0.99797995735246625 
        0.10000000000000009 -0.99797995735246625 
        0
        spline 0 { ref 5 } F 0 F 0.10000000000000009 F -0.99797995735246625 F -0 
        } 0 0 #
-29 face $-1 $40 $31 $6 $-1 $30 forward single #
-30 spline-surface $-1 forward { exactsur nubs 1 1 open open none none 2 2
        0 1 0.10000000000000009 1 
        -3 1 -2.002267729450327 1 
        2.8682984718885169 -8.8817841970012523e-16 0.84512302738698919 
        2.8682984718885169 -8.8817841970012523e-16 0.94512302738698928 
        2.8682984718885169 -5.9450000000000003 0.42951130589546782 
        2.8682984718885169 -5.9450000000000003 0.52951130589546791 
        0
        0
        0
        0
        0
        0
        0
        F 0 F 0.10000000000000009 F -3 F -2.002267729450327 } F 0 F 0.10000000000000009 F -3 F -2.002267729450327 #
-31 loop $-1 $-1 $32 $29 #
-32 coedge $-1 $34 $38 $14 $93 forward $31 $33 #
-33 pcurve $-1 0 forward { exppc nubs 1 open 2
        2.002267729450327 1 3 1 
        0 -2.002267729450327 
        0 -3 
        0
        spline 0 { ref 10 } F 0 F 0.10000000000000009 F -3 F -2.002267729450327 
        } 0 0 #
-34 coedge $-1 $36 $32 $47 $81 reversed $31 $35 #
-35 pcurve $-1 0 forward { exppc nubs 1 open 2
        -0 1 0.10000000000000009 1 
        0 -3 
        0.10000000000000009 -3 
        0
        spline 0 { ref 10 } F 0 F 0.10000000000000009 F -3 F -2.002267729450327 
        } 0 0 #
-36 coedge $-1 $38 $34 $56 $95 reversed $31 $37 #
-37 pcurve $-1 0 forward { exppc nubs 1 open 2
        -3 1 -2.002267729450327 1 
        0.10000000000000009 -3 
        0.10000000000000009 -2.002267729450327 
        0
        spline 0 { ref 10 } F 0 F 0.10000000000000009 F -3 F -2.002267729450327 
        } 0 0 #
-38 coedge $-1 $32 $36 $67 $89 reversed $31 $39 #
-39 pcurve $-1 0 forward { exppc nubs 1 open 2
        -0.10000000000000009 1 -0 1 
        0.10000000000000009 -2.002267729450327 
        0 -2.002267729450327 
        0
        spline 0 { ref 10 } F 0 F 0.10000000000000009 F -3 F -2.002267729450327 
        } 0 0 #
-40 face $-1 $51 $42 $6 $-1 $41 forward single #
-41 spline-surface $-1 forward { exactsur nubs 1 1 open open none none 2 2
        0 1 0.10000000000000009 1 
        -4 1 -3 1 
        -8.8817841970012523e-16 -8.8817841970012523e-16 0.41655635861367069 
        -8.8817841970012523e-16 -8.8817841970012523e-16 0.51655635861367077 
        2.8682984718885161 -8.8817841970012523e-16 0.84512302738698963 
        2.8682984718885161 -8.8817841970012523e-16 0.94512302738698972 
        0
        0
        0
        0
        0
        0
        0
        F 0 F 0.10000000000000009 F -4 F -3 } F 0 F 0.10000000000000009 F -4 F -3 #
-42 loop $-1 $-1 $43 $40 #
-43 coedge $-1 $45 $49 $23 $77 forward $42 $44 #
-44 pcurve $-1 0 forward { exppc nubs 1 open 2
        -0 1 0.10000000000000009 1 
        0 -4 
        0.10000000000000009 -4 
        0
        spline 0 { ref 15 } F 0 F 0.10000000000000009 F -4 F -3 
        } 0 0 #
-45 coedge $-1 $47 $43 $58 $83 reversed $42 $46 #
-46 pcurve $-1 0 forward { exppc nubs 1 open 2
        -4 1 -3 1 
        0.10000000000000009 -4 
        0.10000000000000009 -3 
        0
        spline 0 { ref 15 } F 0 F 0.10000000000000009 F -4 F -3 
        } 0 0 #
-47 coedge $-1 $49 $45 $34 $81 forward $42 $48 #
-48 pcurve $-1 0 forward { exppc nubs 1 open 2
        -0.10000000000000009 1 -0 1 
        0.10000000000000009 -3 
        0 -3 
        0
        spline 0 { ref 15 } F 0 F 0.10000000000000009 F -4 F -3 
        } 0 0 #
-49 coedge $-1 $43 $47 $12 $75 forward $42 $50 #
-50 pcurve $-1 0 forward { exppc nubs 1 open 2
        3 1 4 1 
        0 -3 
        0 -4 
        0
        spline 0 { ref 15 } F 0 F 0.10000000000000009 F -4 F -3 
        } 0 0 #
-51 face $-1 $62 $53 $6 $-1 $52 forward single #
-52 spline-surface $-1 forward { exactsur nubs 1 1 open open none none 2 2
        -0.02989529957789383 1 5.9595170840925693 1 
        0 1 2.9000000000000004 1 
        6.1177132290579283e-20 0.029822476130654588 0.5186417492937484 
        -1.2195434405718173e-17 -5.9450000000000021 0.10084146160950058 
        2.8682984718885169 -7.1959464784041027e-06 0.94522593421598589 
        2.8682984718885169 -5.974829672077135 0.52742564653173818 
        0
        0
        0
        0
        0
        0
        0
        F -0.02989529957789383 F 5.9595170840925693 F 0 F 2.9000000000000004 } F -0.02989529957789383 F 5.9595170840925693 F 0 F 2.9000000000000004 #
-53 loop $-1 $-1 $54 $51 #
-54 coedge $-1 $56 $60 $69 $91 forward $53 $55 #
-55 pcurve $-1 0 forward { exppc nubs 3 open 2
        0 3 2.9001541442209904 3 
        5.9595170840925693 2.2159606535342796e-16 
        5.9495495798457512 0.96666665516820138 
        5.939582075598933 1.9333333103364034 
        5.9296145873547355 2.8999999655046458 
        0
        spline 0 { ref 20 } F -0.02989529957789383 F 5.9595170840925693 F 0 F 2.9000000000000004 
        } 0 0 #
-56 coedge $-1 $58 $54 $36 $95 forward $53 $57 #
-57 pcurve $-1 0 forward { exppc nubs 1 open 2
        2.002267729450327 1 3 1 
        5.9296145873547355 2.8999999655046458 
        -0.02989529957789383 2.8999847885936223 
        0
        spline 0 { ref 20 } F -0.02989529957789383 F 5.9595170840925693 F 0 F 2.9000000000000004 
        } 0 0 #
-58 coedge $-1 $60 $56 $45 $83 forward $53 $59 #
-59 pcurve $-1 0 forward { exppc nubs 1 open 2
        3 1 4 1 
        -0.02989529957789383 2.8999847885936223 
        0 0 
        0
        spline 0 { ref 20 } F -0.02989529957789383 F 5.9595170840925693 F 0 F 2.9000000000000004 
        } 0 0 #
-60 coedge $-1 $54 $58 $21 $79 forward $53 $61 #
-61 pcurve $-1 0 forward { exppc nubs 1 open 2
        0 1 0.99797995735246625 1 
        0 0 
        5.9595170840925693 2.2159606535342796e-16 
        0
        spline 0 { ref 20 } F -0.02989529957789383 F 5.9595170840925693 F 0 F 2.9000000000000004 
        } 0 0 #
-62 face $-1 $-1 $64 $6 $-1 $63 forward single #
-63 spline-surface $-1 forward { exactsur nubs 1 1 open open none none 2 2
        5.1508171894366193 1 8.019115661325138 1 
        5.0112330316692155 1 5.5399028759551827 1 
        -1.1102230246251565e-15 -5.9450000000000003 0.00084146160950054893 
        2.8682984718885169 -5.9450000000000003 0.00084146160950054893 
        -6.6613381477509392e-16 -5.9450000000000003 0.52951130589546769 
        2.8682984718885178 -5.9450000000000003 0.52951130589546769 
        0
        0
        0
        0
        0
        0
        0
        F 5.1508171894366193 F 8.019115661325138 F 5.0112330316692155 F 5.5399028759551827 } F 5.1508171894366193 F 8.019115661325138 F 5.0112330316692155 F 5.5399028759551827 #
-64 loop $-1 $-1 $65 $62 #
-65 coedge $-1 $67 $71 $16 $85 forward $64 $66 #
-66 pcurve $-1 0 forward { exppc nubs 3 open 2
        -0 3 2.90015414422097 3 
        5.1508171894366201 5.0112330316692155 
        6.1069166800661261 5.1541230579331856 
        7.0630161706956329 5.2970130841971566 
        8.019115661325138 5.4399028759551822 
        0
        spline 0 { ref 25 } F 5.1508171894366193 F 8.019115661325138 F 5.0112330316692155 F 5.5399028759551827 
        } 0 0 #
-67 coedge $-1 $69 $65 $38 $89 forward $64 $68 #
-68 pcurve $-1 0 forward { exppc nubs 1 open 2
        0 1 0.10000000000000009 1 
        8.019115661325138 5.4399028759551822 
        8.019115661325138 5.5399028759551827 
        0
        spline 0 { ref 25 } F 5.1508171894366193 F 8.019115661325138 F 5.0112330316692155 F 5.5399028759551827 
        } 0 0 #
-69 coedge $-1 $71 $67 $54 $91 reversed $64 $70 #
-70 pcurve $-1 0 forward { exppc nubs 3 open 2
        -2.9001541442209904 3 -0 3 
        8.019115661325138 5.5399028759551827 
        7.0630161706956311 5.3970130841971571 
        6.106916680066127 5.2541230579331852 
        5.1508171894366193 5.1112330316692152 
        0
        spline 0 { ref 25 } F 5.1508171894366193 F 8.019115661325138 F 5.0112330316692155 F 5.5399028759551827 
        } 0 0 #
-71 coedge $-1 $65 $69 $27 $87 forward $64 $72 #
-72 pcurve $-1 0 forward { exppc nubs 1 open 2
        -0.10000000000000009 1 -0 1 
        5.1508171894366193 5.1112330316692152 
        5.1508171894366201 5.0112330316692155 
        0
        spline 0 { ref 25 } F 5.1508171894366193 F 8.019115661325138 F 5.0112330316692155 F 5.5399028759551827 
        } 0 0 #
-73 edge $-1 $97 $105 $10 $74 forward #
-74 intcurve-curve $-1 forward { exactcur nubs 1 open 2
        0 1 0.99797995735246625 1 
        0 0 0.41655635861367024 
        0 -5.9450000000000003 0.00084146160950056867 
        0
        null_surface
        null_surface
        nullbs
        nullbs
        I I
        0
        0
        0
        F 0 F 0.99797995735246625 } F 0 F 0.99797995735246625 #
-75 edge $-1 $99 $97 $12 $76 forward #
-76 intcurve-curve $-1 forward { exactcur nubs 1 open 2
        3 1 4 1 
        2.8682984718885169 0 0.84512302738698919 
        0 0 0.41655635861367024 
        0
        null_surface
        null_surface
        nullbs
        nullbs
        I I
        0
        0
        0
        F 3 F 4 } F 3 F 4 #
-77 edge $-1 $97 $101 $23 $78 forward #
-78 intcurve-curve $-1 forward { exactcur nubs 1 open 2
        0 1 0.10000000000000009 1 
        0 0 0.41655635861367024 
        0 0 0.51655635861367033 
        0
        null_surface
        null_surface
        nullbs
        nullbs
        I I
        0
        0
        0
        F 0 F 0.10000000000000009 } F 0 F 0.10000000000000009 #
-79 edge $-1 $101 $109 $21 $80 forward #
-80 intcurve-curve $-1 forward { exactcur nubs 1 open 2
        0 1 0.99797995735246625 1 
        0 0 0.51655635861367033 
        -5.5511151231257827e-16 -5.9450000000000003 0.10084146160950044 
        0
        null_surface
        null_surface
        nullbs
        nullbs
        I I
        0
        0
        0
        F 0 F 0.99797995735246625 } F 0 F 0.99797995735246625 #
-81 edge $-1 $103 $99 $34 $82 forward #
-82 intcurve-curve $-1 forward { exactcur nubs 1 open 2
        -0.10000000000000009 1 -0 1 
        2.8682984718885169 0 0.94512302738698917 
        2.8682984718885169 0 0.84512302738698919 
        0
        null_surface
        null_surface
        nullbs
        nullbs
        I I
        0
        0
        0
        F -0.10000000000000009 F -0 } F -0.10000000000000009 F -0 #
-83 edge $-1 $103 $101 $45 $84 forward #
-84 intcurve-curve $-1 forward { exactcur nubs 1 open 2
        3 1 4 1 
        2.8682984718885169 0 0.94512302738698917 
        0 0 0.51655635861367033 
        0
        null_surface
        null_surface
        nullbs
        nullbs
        I I
        0
        0
        0
        F 3 F 4 } F 3 F 4 #
-85 edge $-1 $105 $107 $65 $86 forward #
-86 intcurve-curve $-1 forward { exactcur nubs 3 open 2
        0 3 2.90015414422097 3 
        0 -5.9450000000000003 0.00084146160950056867 
        0.95609948494311425 -5.9450000000000003 0.14373148702363442 
        1.9121989698862292 -5.9450000000000003 0.28662151243776812 
        2.8682984718885174 -5.9450000000000003 0.42951130589546738 
        0
        null_surface
        null_surface
        nullbs
        nullbs
        I I
        0
        0
        0
        F 0 F 2.90015414422097 } F 0 F 2.90015414422097 #
-87 edge $-1 $109 $105 $27 $88 forward #
-88 intcurve-curve $-1 forward { exactcur nubs 1 open 2
        -0.10000000000000009 1 -0 1 
        -5.5511151231257827e-16 -5.9450000000000003 0.10084146160950044 
        0 -5.9450000000000003 0.00084146160950056867 
        0
        null_surface
        null_surface
        nullbs
        nullbs
        I I
        0
        0
        0
        F -0.10000000000000009 F -0 } F -0.10000000000000009 F -0 #
-89 edge $-1 $107 $111 $38 $90 forward #
-90 intcurve-curve $-1 forward { exactcur nubs 1 open 2
        0 1 0.10000000000000009 1 
        2.8682984718885174 -5.9450000000000003 0.42951130589546738 
        2.8682984718885174 -5.9450000000000003 0.52951130589546769 
        0
        null_surface
        null_surface
        nullbs
        nullbs
        I I
        0
        0
        0
        F 0 F 0.10000000000000009 } F 0 F 0.10000000000000009 #
-91 edge $-1 $109 $111 $69 $92 forward #
-92 intcurve-curve $-1 forward { exactcur nubs 3 open 2
        0 3 2.9001541442209904 3 
        -5.5511151231257827e-16 -5.9450000000000003 0.10084146160950044 
        0.95609948494312091 -5.9450000000000003 0.24373148702363545 
        1.9121989698862423 -5.9450000000000003 0.38662151243777032 
        2.8682984718885174 -5.9450000000000003 0.52951130589546769 
        0
        null_surface
        null_surface
        nullbs
        nullbs
        I I
        0
        0
        0
        F 0 F 2.9001541442209904 } F 0 F 2.9001541442209904 #
-93 edge $-1 $107 $99 $14 $94 forward #
-94 intcurve-curve $-1 forward { exactcur nubs 1 open 2
        2.002267729450327 1 3 1 
        2.8682984718885174 -5.9450000000000003 0.42951130589546738 
        2.8682984718885169 0 0.84512302738698919 
        0
        null_surface
        null_surface
        nullbs
        nullbs
        I I
        0
        0
        0
        F 2.002267729450327 F 3 } F 2.002267729450327 F 3 #
-95 edge $-1 $111 $103 $36 $96 forward #
-96 intcurve-curve $-1 forward { exactcur nubs 1 open 2
        2.002267729450327 1 3 1 
        2.8682984718885174 -5.9450000000000003 0.52951130589546769 
        2.8682984718885169 0 0.94512302738698917 
        0
        null_surface
        null_surface
        nullbs
        nullbs
        I I
        0
        0
        0
        F 2.002267729450327 F 3 } F 2.002267729450327 F 3 #
-97 vertex $-1 $73 $98 #
-98 point $-1 0 0 0.41655635861367024 #
-99 vertex $-1 $75 $100 #
-100 point $-1 2.8682984718885169 0 0.84512302738698919 #
-101 vertex $-1 $77 $102 #
-102 point $-1 0 0 0.51655635861367033 #
-103 vertex $-1 $81 $104 #
-104 point $-1 2.8682984718885169 0 0.94512302738698917 #
-105 vertex $-1 $87 $106 #
-106 point $-1 0 -5.9450000000000003 0.00084146160950056867 #
-107 vertex $-1 $89 $108 #
-108 point $-1 2.8682984718885174 -5.9450000000000003 0.42951130589546738 #
-109 vertex $-1 $87 $110 #
-110 point $-1 -5.5511151231257827e-16 -5.9450000000000003 0.10084146160950044 #
-111 vertex $-1 $89 $112 #
-112 point $-1 2.8682984718885174 -5.9450000000000003 0.52951130589546769 #
-113 transform $-1 1 0 0 0 1 0 0 0 1 0 0 0 1 0 0 0 #
-114 lump $-1 $-1 $115 $1 #
-115 shell $-1 $-1 $-1 $116 $-1 $114 #
-116 face $-1 $127 $118 $115 $-1 $117 forward single #
-117 spline-surface $-1 forward { exactsur nubs 1 1 open open none none 2 2
        -0.029895299577892942 1 5.9595170840925693 1 
        0 1 2.8999999999999999 1 
        0 -0.029822476130653704 0.41864174929374831 
        0 5.9450000000000021 0.00084146160950082649 
        2.8682984718885165 7.1959464792575867e-06 0.8452259342159858 
        2.8682984718885165 5.974829672077135 0.42742564653173837 
        0
        0
        0
        0
        0
        0
        0
        F -0.029895299577892942 F 5.9595170840925693 F 0 F 2.8999999999999999 } F -0.029895299577892942 F 5.9595170840925693 F 0 F 2.8999999999999999 #
-118 loop $-1 $-1 $119 $116 #
-119 coedge $-1 $121 $125 $180 $194 forward $118 $120 #
-120 pcurve $-1 0 forward { exppc nubs 3 open 2
        0 3 2.90015414422097 3 
        5.9595170840925693 0 
        5.9495495798457512 0.96666665516818817 
        5.9395820755989348 1.933333310336377 
        5.9296145873547381 2.8999999655046453 
        0
        spline 0 { ref 42 } F -0.029895299577892942 F 5.9595170840925693 F 0 F 2.8999999999999999 
        } 0 0 #
-121 coedge $-1 $123 $119 $147 $202 forward $118 $122 #
-122 pcurve $-1 0 forward { exppc nubs 1 open 2
        2.0022677294503266 1 3 1 
        5.9296145873547381 2.8999999655046453 
        -0.029895299577892942 2.8999847885936227 
        0
        spline 0 { ref 42 } F -0.029895299577892942 F 5.9595170840925693 F 0 F 2.8999999999999999 
        } 0 0 #
-123 coedge $-1 $125 $121 $152 $184 forward $118 $124 #
-124 pcurve $-1 0 forward { exppc nubs 1 open 2
        3 1 4 1 
        -0.029895299577892942 2.8999847885936227 
        0 0 
        0
        spline 0 { ref 42 } F -0.029895299577892942 F 5.9595170840925693 F 0 F 2.8999999999999999 
        } 0 0 #
-125 coedge $-1 $119 $123 $132 $182 forward $118 $126 #
-126 pcurve $-1 0 forward { exppc nubs 1 open 2
        0 1 0.99797995735246636 1 
        0 0 
        5.9595170840925693 0 
        0
        spline 0 { ref 42 } F -0.029895299577892942 F 5.9595170840925693 F 0 F 2.8999999999999999 
        } 0 0 #
-127 face $-1 $138 $129 $115 $-1 $128 forward single #
-128 spline-surface $-1 forward { exactsur nubs 1 1 open open none none 2 2
        -0.99797995735246636 1 -0 1 
        0 1 0.10000000000000009 1 
        -8.8817841970012523e-16 5.9450000000000003 0.0008414616095013816 
        -8.8817841970012523e-16 0 0.41655635861367069 
        -8.8817841970012523e-16 5.9450000000000003 0.10084146160950147 
        -8.8817841970012523e-16 0 0.51655635861367077 
        0
        0
        0
        0
        0
        0
        0
        F -0.99797995735246636 F -0 F 0 F 0.10000000000000009 } F -0.99797995735246636 F -0 F 0 F 0.10000000000000009 #
-129 loop $-1 $-1 $130 $127 #
-130 coedge $-1 $132 $136 $174 $196 forward $129 $131 #
-131 pcurve $-1 0 forward { exppc nubs 1 open 2
        -0.10000000000000009 1 -0 1 
        -0.99797995735246636 0.10000000000000009 
        -0.99797995735246636 0 
        0
        spline 0 { ref 47 } F -0.99797995735246636 F -0 F 0 F 0.10000000000000009 
        } 0 0 #
-132 coedge $-1 $134 $130 $125 $182 reversed $129 $133 #
-133 pcurve $-1 0 forward { exppc nubs 1 open 2
        -0.99797995735246636 1 0 1 
        -0.99797995735246636 0 
        -0 0 
        0
        spline 0 { ref 47 } F -0.99797995735246636 F -0 F 0 F 0.10000000000000009 
        } 0 0 #
-134 coedge $-1 $136 $132 $158 $186 forward $129 $135 #
-135 pcurve $-1 0 forward { exppc nubs 1 open 2
        0 1 0.10000000000000009 1 
        -0 0 
        -0 0.10000000000000009 
        0
        spline 0 { ref 47 } F -0.99797995735246636 F -0 F 0 F 0.10000000000000009 
        } 0 0 #
-136 coedge $-1 $130 $134 $163 $188 forward $129 $137 #
-137 pcurve $-1 0 forward { exppc nubs 1 open 2
        0 1 0.99797995735246636 1 
        -0 0.10000000000000009 
        -0.99797995735246636 0.10000000000000009 
        0
        spline 0 { ref 47 } F -0.99797995735246636 F -0 F 0 F 0.10000000000000009 
        } 0 0 #
-138 face $-1 $149 $140 $115 $-1 $139 forward single #
-139 spline-surface $-1 forward { exactsur nubs 1 1 open open none none 2 2
        -3 1 -2.0022677294503266 1 
        0 1 0.10000000000000009 1 
        2.8682984718885169 -8.8817841970012523e-16 0.84512302738698919 
        2.8682984718885169 5.9450000000000003 0.42951130589546804 
        2.8682984718885169 -8.8817841970012523e-16 0.94512302738698928 
        2.8682984718885169 5.9450000000000003 0.52951130589546813 
        0
        0
        0
        0
        0
        0
        0
        F -3 F -2.0022677294503266 F 0 F 0.10000000000000009 } F -3 F -2.0022677294503266 F 0 F 0.10000000000000009 #
-140 loop $-1 $-1 $141 $138 #
-141 coedge $-1 $143 $147 $178 $198 forward $140 $142 #
-142 pcurve $-1 0 forward { exppc nubs 1 open 2
        0 1 0.10000000000000009 1 
        -2.0022677294503266 0 
        -2.0022677294503266 0.10000000000000009 
        0
        spline 0 { ref 52 } F -3 F -2.0022677294503266 F 0 F 0.10000000000000009 
        } 0 0 #
-143 coedge $-1 $145 $141 $167 $204 forward $140 $144 #
-144 pcurve $-1 0 forward { exppc nubs 1 open 2
        2.0022677294503266 1 3 1 
        -2.0022677294503266 0.10000000000000009 
        -3 0.10000000000000009 
        0
        spline 0 { ref 52 } F -3 F -2.0022677294503266 F 0 F 0.10000000000000009 
        } 0 0 #
-145 coedge $-1 $147 $143 $154 $190 forward $140 $146 #
-146 pcurve $-1 0 forward { exppc nubs 1 open 2
        -0.10000000000000009 1 0 1 
        -3 0.10000000000000009 
        -3 0 
        0
        spline 0 { ref 52 } F -3 F -2.0022677294503266 F 0 F 0.10000000000000009 
        } 0 0 #
-147 coedge $-1 $141 $145 $121 $202 reversed $140 $148 #
-148 pcurve $-1 0 forward { exppc nubs 1 open 2
        -3 1 -2.0022677294503266 1 
        -3 0 
        -2.0022677294503266 0 
        0
        spline 0 { ref 52 } F -3 F -2.0022677294503266 F 0 F 0.10000000000000009 
        } 0 0 #
-149 face $-1 $160 $151 $115 $-1 $150 forward single #
-150 spline-surface $-1 forward { exactsur nubs 1 1 open open none none 2 2
        -4 1 -3 1 
        0 1 0.10000000000000009 1 
        -8.8817841970012523e-16 -8.8817841970012523e-16 0.41655635861367069 
        2.8682984718885161 -8.8817841970012523e-16 0.84512302738698963 
        -8.8817841970012523e-16 -8.8817841970012523e-16 0.51655635861367077 
        2.8682984718885161 -8.8817841970012523e-16 0.94512302738698972 
        0
        0
        0
        0
        0
        0
        0
        F -4 F -3 F 0 F 0.10000000000000009 } F -4 F -3 F 0 F 0.10000000000000009 #
-151 loop $-1 $-1 $152 $149 #
-152 coedge $-1 $154 $158 $123 $184 reversed $151 $153 #
-153 pcurve $-1 0 forward { exppc nubs 1 open 2
        -4 1 -3 1 
        -4 0 
        -3 0 
        0
        spline 0 { ref 57 } F -4 F -3 F 0 F 0.10000000000000009 
        } 0 0 #
-154 coedge $-1 $156 $152 $145 $190 reversed $151 $155 #
-155 pcurve $-1 0 forward { exppc nubs 1 open 2
        0 1 0.10000000000000009 1 
        -3 0 
        -3 0.10000000000000009 
        0
        spline 0 { ref 57 } F -4 F -3 F 0 F 0.10000000000000009 
        } 0 0 #
-156 coedge $-1 $158 $154 $165 $192 forward $151 $157 #
-157 pcurve $-1 0 forward { exppc nubs 1 open 2
        3 1 4 1 
        -3 0.10000000000000009 
        -4 0.10000000000000009 
        0
        spline 0 { ref 57 } F -4 F -3 F 0 F 0.10000000000000009 
        } 0 0 #
-158 coedge $-1 $152 $156 $134 $186 reversed $151 $159 #
-159 pcurve $-1 0 forward { exppc nubs 1 open 2
        -0.10000000000000009 1 0 1 
        -4 0.10000000000000009 
        -4 0 
        0
        spline 0 { ref 57 } F -4 F -3 F 0 F 0.10000000000000009 
        } 0 0 #
-160 face $-1 $171 $162 $115 $-1 $161 forward single #
-161 spline-surface $-1 forward { exactsur nubs 1 1 open open none none 2 2
        0 1 2.8999999999999999 1 
        -0.029895299577892942 1 5.9595170840925693 1 
        0 -0.029822476130653704 0.5186417492937484 
        2.8682984718885165 7.1959464792575867e-06 0.94522593421598589 
        0 5.9450000000000021 0.10084146160950092 
        2.8682984718885165 5.974829672077135 0.5274256465317384 
        0
        0
        0
        0
        0
        0
        0
        F 0 F 2.8999999999999999 F -0.029895299577892942 F 5.9595170840925693 } F 0 F 2.8999999999999999 F -0.029895299577892942 F 5.9595170840925693 #
-162 loop $-1 $-1 $163 $160 #
-163 coedge $-1 $165 $169 $136 $188 reversed $162 $164 #
-164 pcurve $-1 0 forward { exppc nubs 1 open 2
        -0.99797995735246636 1 -0 1 
        0 5.9595170840925693 
        0 0 
        0
        spline 0 { ref 62 } F 0 F 2.8999999999999999 F -0.029895299577892942 F 5.9595170840925693 
        } 0 0 #
-165 coedge $-1 $167 $163 $156 $192 reversed $162 $166 #
-166 pcurve $-1 0 forward { exppc nubs 1 open 2
        -4 1 -3 1 
        0 0 
        2.8999847885936227 -0.029895299577892942 
        0
        spline 0 { ref 62 } F 0 F 2.8999999999999999 F -0.029895299577892942 F 5.9595170840925693 
        } 0 0 #
-167 coedge $-1 $169 $165 $143 $204 reversed $162 $168 #
-168 pcurve $-1 0 forward { exppc nubs 1 open 2
        -3 1 -2.0022677294503266 1 
        2.8999847885936227 -0.029895299577892942 
        2.8999999655046453 5.9296145873547381 
        0
        spline 0 { ref 62 } F 0 F 2.8999999999999999 F -0.029895299577892942 F 5.9595170840925693 
        } 0 0 #
-169 coedge $-1 $163 $167 $176 $200 reversed $162 $170 #
-170 pcurve $-1 0 forward { exppc nubs 3 open 2
        -2.9001541442209691 3 -0 3 
        2.8999999655046453 5.9296145873547381 
        1.9333333103363761 5.939582075598933 
        0.96666665516818784 5.9495495798457512 
        0 5.9595170840925693 
        0
        spline 0 { ref 62 } F 0 F 2.8999999999999999 F -0.029895299577892942 F 5.9595170840925693 
        } 0 0 #
-171 face $-1 $-1 $173 $115 $-1 $172 forward single #
-172 spline-surface $-1 forward { exactsur nubs 1 1 open open none none 2 2
        5.1508171894366193 1 8.019115661325138 1 
        1.0807526897860973 1 1.6094225340720645 1 
        -6.6613381477509392e-16 5.9450000000000003 0.52951130589546813 
        2.8682984718885178 5.9450000000000003 0.52951130589546813 
        -6.6613381477509392e-16 5.9450000000000003 0.00084146160950104854 
        2.8682984718885178 5.9450000000000003 0.00084146160950104854 
        0
        0
        0
        0
        0
        0
        0
        F 5.1508171894366193 F 8.019115661325138 F 1.0807526897860973 F 1.6094225340720645 } F 5.1508171894366193 F 8.019115661325138 F 1.0807526897860973 F 1.6094225340720645 #
-173 loop $-1 $-1 $174 $171 #
-174 coedge $-1 $176 $180 $130 $196 reversed $173 $175 #
-175 pcurve $-1 0 forward { exppc nubs 1 open 2
        0 1 0.10000000000000009 1 
        5.1508171894366193 1.6094225340720645 
        5.1508171894366201 1.5094225340720644 
        0
        spline 0 { ref 67 } F 5.1508171894366193 F 8.019115661325138 F 1.0807526897860973 F 1.6094225340720645 
        } 0 0 #
-176 coedge $-1 $178 $174 $169 $200 forward $173 $177 #
-177 pcurve $-1 0 forward { exppc nubs 3 open 2
        -0 3 2.9001541442209691 3 
        5.1508171894366201 1.5094225340720644 
        6.1069166800661243 1.3665325078080937 
        7.0630161706956311 1.2236424815441234 
        8.019115661325138 1.0807526897860973 
        0
        spline 0 { ref 67 } F 5.1508171894366193 F 8.019115661325138 F 1.0807526897860973 F 1.6094225340720645 
        } 0 0 #
-178 coedge $-1 $180 $176 $141 $198 reversed $173 $179 #
-179 pcurve $-1 0 forward { exppc nubs 1 open 2
        -0.10000000000000009 1 -0 1 
        8.019115661325138 1.0807526897860973 
        8.019115661325138 1.1807526897860974 
        0
        spline 0 { ref 67 } F 5.1508171894366193 F 8.019115661325138 F 1.0807526897860973 F 1.6094225340720645 
        } 0 0 #
-180 coedge $-1 $174 $178 $119 $194 reversed $173 $181 #
-181 pcurve $-1 0 forward { exppc nubs 3 open 2
        -2.90015414422097 3 -0 3 
        8.019115661325138 1.1807526897860974 
        7.0630161706956329 1.3236424815441232 
        6.1069166800661261 1.4665325078080937 
        5.1508171894366193 1.6094225340720645 
        0
        spline 0 { ref 67 } F 5.1508171894366193 F 8.019115661325138 F 1.0807526897860973 F 1.6094225340720645 
        } 0 0 #
-182 edge $-1 $206 $214 $125 $183 forward #
-183 intcurve-curve $-1 forward { exactcur nubs 1 open 2
        0 1 0.99797995735246636 1 
        0 0 0.41655635861367024 
        -3.3306690738754696e-16 5.9450000000000003 0.00084146160950093361 
        0
        null_surface
        null_surface
        nullbs
        nullbs
        I I
        0
        0
        0
        F 0 F 0.99797995735246636 } F 0 F 0.99797995735246636 #
-184 edge $-1 $208 $206 $123 $185 forward #
-185 intcurve-curve $-1 forward { exactcur nubs 1 open 2
        3 1 4 1 
        2.8682984718885169 0 0.84512302738698919 
        0 0 0.41655635861367024 
        0
        null_surface
        null_surface
        nullbs
        nullbs
        I I
        0
        0
        0
        F 3 F 4 } F 3 F 4 #
-186 edge $-1 $206 $210 $134 $187 forward #
-187 intcurve-curve $-1 forward { exactcur nubs 1 open 2
        0 1 0.10000000000000009 1 
        0 0 0.41655635861367024 
        0 0 0.51655635861367033 
        0
        null_surface
        null_surface
        nullbs
        nullbs
        I I
        0
        0
        0
        F 0 F 0.10000000000000009 } F 0 F 0.10000000000000009 #
-188 edge $-1 $210 $218 $136 $189 forward #
-189 intcurve-curve $-1 forward { exactcur nubs 1 open 2
        0 1 0.99797995735246636 1 
        0 0 0.51655635861367033 
        0 5.9450000000000003 0.10084146160950103 
        0
        null_surface
        null_surface
        nullbs
        nullbs
        I I
        0
        0
        0
        F 0 F 0.99797995735246636 } F 0 F 0.99797995735246636 #
-190 edge $-1 $212 $208 $145 $191 forward #
-191 intcurve-curve $-1 forward { exactcur nubs 1 open 2
        -0.10000000000000009 1 -0 1 
        2.8682984718885169 0 0.94512302738698917 
        2.8682984718885169 0 0.84512302738698919 
        0
        null_surface
        null_surface
        nullbs
        nullbs
        I I
        0
        0
        0
        F -0.10000000000000009 F -0 } F -0.10000000000000009 F -0 #
-192 edge $-1 $212 $210 $156 $193 forward #
-193 intcurve-curve $-1 forward { exactcur nubs 1 open 2
        3 1 4 1 
        2.8682984718885169 0 0.94512302738698917 
        0 0 0.51655635861367033 
        0
        null_surface
        null_surface
        nullbs
        nullbs
        I I
        0
        0
        0
        F 3 F 4 } F 3 F 4 #
-194 edge $-1 $214 $216 $180 $195 forward #
-195 intcurve-curve $-1 forward { exactcur nubs 3 open 2
        0 3 2.90015414422097 3 
        -3.3306690738754696e-16 5.9450000000000003 0.00084146160950093361 
        0.95609948494311447 5.9450000000000003 0.14373148702363472 
        1.9121989698862294 5.9450000000000003 0.28662151243776857 
        2.8682984718885174 5.9450000000000003 0.42951130589546804 
        0
        null_surface
        null_surface
        nullbs
        nullbs
        I I
        0
        0
        0
        F 0 F 2.90015414422097 } F 0 F 2.90015414422097 #
-196 edge $-1 $218 $214 $130 $197 forward #
-197 intcurve-curve $-1 forward { exactcur nubs 1 open 2
        -0.10000000000000009 1 -0 1 
        0 5.9450000000000003 0.10084146160950103 
        -3.3306690738754696e-16 5.9450000000000003 0.00084146160950093361 
        0
        null_surface
        null_surface
        nullbs
        nullbs
        I I
        0
        0
        0
        F -0.10000000000000009 F -0 } F -0.10000000000000009 F -0 #
-198 edge $-1 $216 $220 $141 $199 forward #
-199 intcurve-curve $-1 forward { exactcur nubs 1 open 2
        0 1 0.10000000000000009 1 
        2.8682984718885174 5.9450000000000003 0.42951130589546804 
        2.8682984718885174 5.9450000000000003 0.52951130589546813 
        0
        null_surface
        null_surface
        nullbs
        nullbs
        I I
        0
        0
        0
        F 0 F 0.10000000000000009 } F 0 F 0.10000000000000009 #
-200 edge $-1 $218 $220 $176 $201 forward #
-201 intcurve-curve $-1 forward { exactcur nubs 3 open 2
        0 3 2.9001541442209691 3 
        0 5.9450000000000003 0.10084146160950103 
        0.95609948494311425 5.9450000000000003 0.2437314870236349 
        1.9121989698862287 5.9450000000000003 0.38662151243776838 
        2.8682984718885174 5.9450000000000003 0.52951130589546813 
        0
        null_surface
        null_surface
        nullbs
        nullbs
        I I
        0
        0
        0
        F 0 F 2.9001541442209691 } F 0 F 2.9001541442209691 #
-202 edge $-1 $216 $208 $121 $203 forward #
-203 intcurve-curve $-1 forward { exactcur nubs 1 open 2
        2.0022677294503266 1 3 1 
        2.8682984718885174 5.9450000000000003 0.42951130589546804 
        2.8682984718885169 0 0.84512302738698919 
        0
        null_surface
        null_surface
        nullbs
        nullbs
        I I
        0
        0
        0
        F 2.0022677294503266 F 3 } F 2.0022677294503266 F 3 #
-204 edge $-1 $220 $212 $143 $205 forward #
-205 intcurve-curve $-1 forward { exactcur nubs 1 open 2
        2.0022677294503266 1 3 1 
        2.8682984718885174 5.9450000000000003 0.52951130589546813 
        2.8682984718885169 0 0.94512302738698917 
        0
        null_surface
        null_surface
        nullbs
        nullbs
        I I
        0
        0
        0
        F 2.0022677294503266 F 3 } F 2.0022677294503266 F 3 #
-206 vertex $-1 $182 $207 #
-207 point $-1 0 0 0.41655635861367024 #
-208 vertex $-1 $184 $209 #
-209 point $-1 2.8682984718885169 0 0.84512302738698919 #
-210 vertex $-1 $186 $211 #
-211 point $-1 0 0 0.51655635861367033 #
-212 vertex $-1 $190 $213 #
-213 point $-1 2.8682984718885169 0 0.94512302738698917 #
-214 vertex $-1 $196 $215 #
-215 point $-1 -3.3306690738754696e-16 5.9450000000000003 0.00084146160950093361 #
-216 vertex $-1 $198 $217 #
-217 point $-1 2.8682984718885174 5.9450000000000003 0.42951130589546804 #
-218 vertex $-1 $196 $219 #
-219 point $-1 0 5.9450000000000003 0.10084146160950103 #
-220 vertex $-1 $198 $221 #
-221 point $-1 2.8682984718885174 5.9450000000000003 0.52951130589546813 #
-222 transform $-1 1 0 0 0 1 0 0 0 1 0 0 0 1 0 0 0 #
-223 lump $-1 $-1 $224 $2 #
-224 shell $-1 $-1 $-1 $225 $-1 $223 #
-225 face $-1 $236 $227 $224 $-1 $226 forward single #
-226 spline-surface $-1 forward { exactsur nubs 1 1 open open none none 2 2
        -0.02989529957789383 1 5.9595170840925693 1 
        0 1 2.899999999999999 1 
        0 0.029822476130654588 0.41864174929374837 
        0 -5.9450000000000021 0.00084146160950043791 
        -2.8682984718885156 -7.1959464783971638e-06 0.8452259342159858 
        -2.8682984718885156 -5.974829672077135 0.42742564653173787 
        0
        0
        0
        0
        0
        0
        0
        F -0.02989529957789383 F 5.9595170840925693 F 0 F 2.899999999999999 } F -0.02989529957789383 F 5.9595170840925693 F 0 F 2.899999999999999 #
-227 loop $-1 $-1 $228 $225 #
-228 coedge $-1 $230 $234 $289 $303 forward $227 $229 #
-229 pcurve $-1 0 forward { exppc nubs 3 open 2
        0 3 2.9001541442209691 3 
        5.9595170840925693 0 
        5.9495495798457512 0.96666665516818751 
        5.9395820755989348 1.9333333103363766 
        5.9296145873547355 2.8999999655046449 
        0
        spline 0 { ref 84 } F -0.02989529957789383 F 5.9595170840925693 F 0 F 2.899999999999999 
        } 0 0 #
-230 coedge $-1 $232 $228 $256 $311 forward $227 $231 #
-231 pcurve $-1 0 forward { exppc nubs 1 open 2
        2.002267729450327 1 3 1 
        5.9296145873547355 2.8999999655046449 
        -0.02989529957789383 2.8999847885936219 
        0
        spline 0 { ref 84 } F -0.02989529957789383 F 5.9595170840925693 F 0 F 2.899999999999999 
        } 0 0 #
-232 coedge $-1 $234 $230 $261 $293 forward $227 $233 #
-233 pcurve $-1 0 forward { exppc nubs 1 open 2
        3 1 4 1 
        -0.02989529957789383 2.8999847885936219 
        0 0 
        0
        spline 0 { ref 84 } F -0.02989529957789383 F 5.9595170840925693 F 0 F 2.899999999999999 
        } 0 0 #
-234 coedge $-1 $228 $232 $241 $291 forward $227 $235 #
-235 pcurve $-1 0 forward { exppc nubs 1 open 2
        0 1 0.99797995735246625 1 
        0 0 
        5.9595170840925693 0 
        0
        spline 0 { ref 84 } F -0.02989529957789383 F 5.9595170840925693 F 0 F 2.899999999999999 
        } 0 0 #
-236 face $-1 $247 $238 $224 $-1 $237 forward single #
-237 spline-surface $-1 forward { exactsur nubs 1 1 open open none none 2 2
        -0.99797995735246625 1 -0 1 
        0 1 0.10000000000000009 1 
        -8.8817841970012523e-16 -5.9450000000000003 0.00084146160950054893 
        -8.8817841970012523e-16 0 0.41655635861367024 
        -8.8817841970012523e-16 -5.9450000000000003 0.10084146160950058 
        -8.8817841970012523e-16 0 0.51655635861367033 
        0
        0
        0
        0
        0
        0
        0
        F -0.99797995735246625 F -0 F 0 F 0.10000000000000009 } F -0.99797995735246625 F -0 F 0 F 0.10000000000000009 #
-238 loop $-1 $-1 $239 $236 #
-239 coedge $-1 $241 $245 $283 $305 forward $238 $240 #
-240 pcurve $-1 0 forward { exppc nubs 1 open 2
        -0.10000000000000009 1 -0 1 
        -0.99797995735246625 0.10000000000000009 
        -0.99797995735246625 0 
        0
        spline 0 { ref 89 } F -0.99797995735246625 F -0 F 0 F 0.10000000000000009 
        } 0 0 #
-241 coedge $-1 $243 $239 $234 $291 reversed $238 $242 #
-242 pcurve $-1 0 forward { exppc nubs 1 open 2
        -0.99797995735246625 1 0 1 
        -0.99797995735246625 0 
        -0 0 
        0
        spline 0 { ref 89 } F -0.99797995735246625 F -0 F 0 F 0.10000000000000009 
        } 0 0 #
-243 coedge $-1 $245 $241 $267 $295 forward $238 $244 #
-244 pcurve $-1 0 forward { exppc nubs 1 open 2
        0 1 0.10000000000000009 1 
        -0 0 
        -0 0.10000000000000009 
        0
        spline 0 { ref 89 } F -0.99797995735246625 F -0 F 0 F 0.10000000000000009 
        } 0 0 #
-245 coedge $-1 $239 $243 $272 $297 forward $238 $246 #
-246 pcurve $-1 0 forward { exppc nubs 1 open 2
        0 1 0.99797995735246625 1 
        -0 0.10000000000000009 
        -0.99797995735246625 0.10000000000000009 
        0
        spline 0 { ref 89 } F -0.99797995735246625 F -0 F 0 F 0.10000000000000009 
        } 0 0 #
-247 face $-1 $258 $249 $224 $-1 $248 forward single #
-248 spline-surface $-1 forward { exactsur nubs 1 1 open open none none 2 2
        -3 1 -2.002267729450327 1 
        0 1 0.10000000000000009 1 
        -2.8682984718885161 -8.8817841970012523e-16 0.84512302738698919 
        -2.8682984718885161 -5.9450000000000003 0.42951130589546782 
        -2.8682984718885161 -8.8817841970012523e-16 0.94512302738698928 
        -2.8682984718885161 -5.9450000000000003 0.52951130589546791 
        0
        0
        0
        0
        0
        0
        0
        F -3 F -2.002267729450327 F 0 F 0.10000000000000009 } F -3 F -2.002267729450327 F 0 F 0.10000000000000009 #
-249 loop $-1 $-1 $250 $247 #
-250 coedge $-1 $252 $256 $287 $307 forward $249 $251 #
-251 pcurve $-1 0 forward { exppc nubs 1 open 2
        0 1 0.10000000000000009 1 
        -2.002267729450327 0 
        -2.002267729450327 0.10000000000000009 
        0
        spline 0 { ref 94 } F -3 F -2.002267729450327 F 0 F 0.10000000000000009 
        } 0 0 #
-252 coedge $-1 $254 $250 $276 $313 forward $249 $253 #
-253 pcurve $-1 0 forward { exppc nubs 1 open 2
        2.002267729450327 1 3 1 
        -2.002267729450327 0.10000000000000009 
        -3 0.10000000000000009 
        0
        spline 0 { ref 94 } F -3 F -2.002267729450327 F 0 F 0.10000000000000009 
        } 0 0 #
-254 coedge $-1 $256 $252 $263 $299 forward $249 $255 #
-255 pcurve $-1 0 forward { exppc nubs 1 open 2
        -0.10000000000000009 1 0 1 
        -3 0.10000000000000009 
        -3 0 
        0
        spline 0 { ref 94 } F -3 F -2.002267729450327 F 0 F 0.10000000000000009 
        } 0 0 #
-256 coedge $-1 $250 $254 $230 $311 reversed $249 $257 #
-257 pcurve $-1 0 forward { exppc nubs 1 open 2
        -3 1 -2.002267729450327 1 
        -3 0 
        -2.002267729450327 0 
        0
        spline 0 { ref 94 } F -3 F -2.002267729450327 F 0 F 0.10000000000000009 
        } 0 0 #
-258 face $-1 $269 $260 $224 $-1 $259 forward single #
-259 spline-surface $-1 forward { exactsur nubs 1 1 open open none none 2 2
        -4 1 -3 1 
        0 1 0.10000000000000009 1 
        -8.8817841970012523e-16 -8.8817841970012523e-16 0.41655635861367069 
        -2.8682984718885169 -8.8817841970012523e-16 0.84512302738698963 
        -8.8817841970012523e-16 -8.8817841970012523e-16 0.51655635861367077 
        -2.8682984718885169 -8.8817841970012523e-16 0.94512302738698972 
        0
        0
        0
        0
        0
        0
        0
        F -4 F -3 F 0 F 0.10000000000000009 } F -4 F -3 F 0 F 0.10000000000000009 #
-260 loop $-1 $-1 $261 $258 #
-261 coedge $-1 $263 $267 $232 $293 reversed $260 $262 #
-262 pcurve $-1 0 forward { exppc nubs 1 open 2
        -4 1 -3 1 
        -4 0 
        -3 0 
        0
        spline 0 { ref 99 } F -4 F -3 F 0 F 0.10000000000000009 
        } 0 0 #
-263 coedge $-1 $265 $261 $254 $299 reversed $260 $264 #
-264 pcurve $-1 0 forward { exppc nubs 1 open 2
        0 1 0.10000000000000009 1 
        -3 0 
        -3 0.10000000000000009 
        0
        spline 0 { ref 99 } F -4 F -3 F 0 F 0.10000000000000009 
        } 0 0 #
-265 coedge $-1 $267 $263 $274 $301 forward $260 $266 #
-266 pcurve $-1 0 forward { exppc nubs 1 open 2
        3 1 4 1 
        -3 0.10000000000000009 
        -4 0.10000000000000009 
        0
        spline 0 { ref 99 } F -4 F -3 F 0 F 0.10000000000000009 
        } 0 0 #
-267 coedge $-1 $261 $265 $243 $295 reversed $260 $268 #
-268 pcurve $-1 0 forward { exppc nubs 1 open 2
        -0.10000000000000009 1 0 1 
        -4 0.10000000000000009 
        -4 0 
        0
        spline 0 { ref 99 } F -4 F -3 F 0 F 0.10000000000000009 
        } 0 0 #
-269 face $-1 $280 $271 $224 $-1 $270 forward single #
-270 spline-surface $-1 forward { exactsur nubs 1 1 open open none none 2 2
        0 1 2.899999999999999 1 
        -0.02989529957789383 1 5.9595170840925693 1 
        0 0.029822476130654588 0.5186417492937484 
        -2.8682984718885156 -7.1959464783971638e-06 0.94522593421598589 
        0 -5.9450000000000021 0.10084146160950053 
        -2.8682984718885156 -5.974829672077135 0.52742564653173796 
        0
        0
        0
        0
        0
        0
        0
        F 0 F 2.899999999999999 F -0.02989529957789383 F 5.9595170840925693 } F 0 F 2.899999999999999 F -0.02989529957789383 F 5.9595170840925693 #
-271 loop $-1 $-1 $272 $269 #
-272 coedge $-1 $274 $278 $245 $297 reversed $271 $273 #
-273 pcurve $-1 0 forward { exppc nubs 1 open 2
        -0.99797995735246625 1 -0 1 
        0 5.9595170840925693 
        0 0 
        0
        spline 0 { ref 104 } F 0 F 2.899999999999999 F -0.02989529957789383 F 5.9595170840925693 
        } 0 0 #
-274 coedge $-1 $276 $272 $265 $301 reversed $271 $275 #
-275 pcurve $-1 0 forward { exppc nubs 1 open 2
        -4 1 -3 1 
        0 0 
        2.8999847885936219 -0.02989529957789383 
        0
        spline 0 { ref 104 } F 0 F 2.899999999999999 F -0.02989529957789383 F 5.9595170840925693 
        } 0 0 #
-276 coedge $-1 $278 $274 $252 $313 reversed $271 $277 #
-277 pcurve $-1 0 forward { exppc nubs 1 open 2
        -3 1 -2.002267729450327 1 
        2.8999847885936219 -0.02989529957789383 
        2.8999999655046449 5.9296145873547355 
        0
        spline 0 { ref 104 } F 0 F 2.899999999999999 F -0.02989529957789383 F 5.9595170840925693 
        } 0 0 #
-278 coedge $-1 $272 $276 $285 $309 reversed $271 $279 #
-279 pcurve $-1 0 forward { exppc nubs 3 open 2
        -2.9001541442209691 3 -0 3 
        2.8999999655046449 5.9296145873547355 
        1.9333333103363766 5.9395820755989348 
        0.96666665516818751 5.9495495798457512 
        0 5.9595170840925693 
        0
        spline 0 { ref 104 } F 0 F 2.899999999999999 F -0.02989529957789383 F 5.9595170840925693 
        } 0 0 #
-280 face $-1 $-1 $282 $224 $-1 $281 forward single #
-281 spline-surface $-1 forward { exactsur nubs 1 1 open open none none 2 2
        2.2825187175481019 1 5.1508171894366201 1 
        5.0112330316692155 1 5.5399028759551836 1 
        -2.8682984718885183 -5.9450000000000003 0.00084146160950060445 
        0 -5.9450000000000003 0.00084146160950060445 
        -2.8682984718885183 -5.9450000000000003 0.52951130589546858 
        0 -5.9450000000000003 0.52951130589546858 
        0
        0
        0
        0
        0
        0
        0
        F 2.2825187175481019 F 5.1508171894366201 F 5.0112330316692155 F 5.5399028759551836 } F 2.2825187175481019 F 5.1508171894366201 F 5.0112330316692155 F 5.5399028759551836 #
-282 loop $-1 $-1 $283 $280 #
-283 coedge $-1 $285 $289 $239 $305 reversed $282 $284 #
-284 pcurve $-1 0 forward { exppc nubs 1 open 2
        0 1 0.10000000000000009 1 
        5.1508171894366201 5.0112330316692155 
        5.1508171894366193 5.1112330316692152 
        0
        spline 0 { ref 109 } F 2.2825187175481019 F 5.1508171894366201 F 5.0112330316692155 F 5.5399028759551836 
        } 0 0 #
-285 coedge $-1 $287 $283 $278 $309 forward $282 $286 #
-286 pcurve $-1 0 forward { exppc nubs 3 open 2
        -0 3 2.9001541442209691 3 
        5.1508171894366193 5.1112330316692152 
        4.1947176988071151 5.2541230579331852 
        3.23861820817761 5.3970130841971562 
        2.2825187175481019 5.5399028759551836 
        0
        spline 0 { ref 109 } F 2.2825187175481019 F 5.1508171894366201 F 5.0112330316692155 F 5.5399028759551836 
        } 0 0 #
-287 coedge $-1 $289 $285 $250 $307 reversed $282 $288 #
-288 pcurve $-1 0 forward { exppc nubs 1 open 2
        -0.10000000000000009 1 -0 1 
        2.2825187175481019 5.5399028759551836 
        2.2825187175481045 5.4399028759551831 
        0
        spline 0 { ref 109 } F 2.2825187175481019 F 5.1508171894366201 F 5.0112330316692155 F 5.5399028759551836 
        } 0 0 #
-289 coedge $-1 $283 $287 $228 $303 reversed $282 $290 #
-290 pcurve $-1 0 forward { exppc nubs 3 open 2
        -2.9001541442209691 3 -0 3 
        2.2825187175481045 5.4399028759551831 
        3.23861820817761 5.2970130841971566 
        4.194717698807116 5.1541230579331856 
        5.1508171894366201 5.0112330316692155 
        0
        spline 0 { ref 109 } F 2.2825187175481019 F 5.1508171894366201 F 5.0112330316692155 F 5.5399028759551836 
        } 0 0 #
-291 edge $-1 $315 $323 $234 $292 forward #
-292 intcurve-curve $-1 forward { exactcur nubs 1 open 2
        0 1 0.99797995735246625 1 
        0 0 0.41655635861367024 
        0 -5.9450000000000003 0.00084146160950056867 
        0
        null_surface
        null_surface
        nullbs
        nullbs
        I I
        0
        0
        0
        F 0 F 0.99797995735246625 } F 0 F 0.99797995735246625 #
-293 edge $-1 $317 $315 $232 $294 forward #
-294 intcurve-curve $-1 forward { exactcur nubs 1 open 2
        3 1 4 1 
        -2.8682984718885165 0 0.84512302738698919 
        0 0 0.41655635861367024 
        0
        null_surface
        null_surface
        nullbs
        nullbs
        I I
        0
        0
        0
        F 3 F 4 } F 3 F 4 #
-295 edge $-1 $315 $319 $243 $296 forward #
-296 intcurve-curve $-1 forward { exactcur nubs 1 open 2
        0 1 0.10000000000000009 1 
        0 0 0.41655635861367024 
        0 0 0.51655635861367033 
        0
        null_surface
        null_surface
        nullbs
        nullbs
        I I
        0
        0
        0
        F 0 F 0.10000000000000009 } F 0 F 0.10000000000000009 #
-297 edge $-1 $319 $327 $245 $298 forward #
-298 intcurve-curve $-1 forward { exactcur nubs 1 open 2
        0 1 0.99797995735246625 1 
        0 0 0.51655635861367033 
        -5.5511151231257827e-16 -5.9450000000000003 0.10084146160950044 
        0
        null_surface
        null_surface
        nullbs
        nullbs
        I I
        0
        0
        0
        F 0 F 0.99797995735246625 } F 0 F 0.99797995735246625 #
-299 edge $-1 $321 $317 $254 $300 forward #
-300 intcurve-curve $-1 forward { exactcur nubs 1 open 2
        -0.10000000000000009 1 -0 1 
        -2.8682984718885169 0 0.94512302738698917 
        -2.8682984718885165 0 0.84512302738698919 
        0
        null_surface
        null_surface
        nullbs
        nullbs
        I I
        0
        0
        0
        F -0.10000000000000009 F -0 } F -0.10000000000000009 F -0 #
-301 edge $-1 $321 $319 $265 $302 forward #
-302 intcurve-curve $-1 forward { exactcur nubs 1 open 2
        3 1 4 1 
        -2.8682984718885169 0 0.94512302738698917 
        0 0 0.51655635861367033 
        0
        null_surface
        null_surface
        nullbs
        nullbs
        I I
        0
        0
        0
        F 3 F 4 } F 3 F 4 #
-303 edge $-1 $323 $325 $289 $304 forward #
-304 intcurve-curve $-1 forward { exactcur nubs 3 open 2
        0 3 2.9001541442209691 3 
        0 -5.9450000000000003 0.00084146160950056867 
        -0.95609948494311425 -5.9450000000000003 0.14373148702363445 
        -1.9121989698862287 -5.9450000000000003 0.28662151243776812 
        -2.8682984718885161 -5.9450000000000003 0.42951130589546793 
        0
        null_surface
        null_surface
        nullbs
        nullbs
        I I
        0
        0
        0
        F 0 F 2.9001541442209691 } F 0 F 2.9001541442209691 #
-305 edge $-1 $327 $323 $239 $306 forward #
-306 intcurve-curve $-1 forward { exactcur nubs 1 open 2
        -0.10000000000000009 1 -0 1 
        -5.5511151231257827e-16 -5.9450000000000003 0.10084146160950044 
        0 -5.9450000000000003 0.00084146160950056867 
        0
        null_surface
        null_surface
        nullbs
        nullbs
        I I
        0
        0
        0
        F -0.10000000000000009 F -0 } F -0.10000000000000009 F -0 #
-307 edge $-1 $325 $329 $250 $308 forward #
-308 intcurve-curve $-1 forward { exactcur nubs 1 open 2
        0 1 0.10000000000000009 1 
        -2.8682984718885161 -5.9450000000000003 0.42951130589546793 
        -2.8682984718885178 -5.9450000000000003 0.52951130589546813 
        0
        null_surface
        null_surface
        nullbs
        nullbs
        I I
        0
        0
        0
        F 0 F 0.10000000000000009 } F 0 F 0.10000000000000009 #
-309 edge $-1 $327 $329 $285 $310 forward #
-310 intcurve-curve $-1 forward { exactcur nubs 3 open 2
        0 3 2.9001541442209691 3 
        -5.5511151231257827e-16 -5.9450000000000003 0.10084146160950044 
        -0.95609948494311425 -5.9450000000000003 0.24373148702363429 
        -1.9121989698862287 -5.9450000000000003 0.38662151243776804 
        -2.8682984718885178 -5.9450000000000003 0.52951130589546813 
        0
        null_surface
        null_surface
        nullbs
        nullbs
        I I
        0
        0
        0
        F 0 F 2.9001541442209691 } F 0 F 2.9001541442209691 #
-311 edge $-1 $325 $317 $230 $312 forward #
-312 intcurve-curve $-1 forward { exactcur nubs 1 open 2
        2.002267729450327 1 3 1 
        -2.8682984718885161 -5.9450000000000003 0.42951130589546793 
        -2.8682984718885165 0 0.84512302738698919 
        0
        null_surface
        null_surface
        nullbs
        nullbs
        I I
        0
        0
        0
        F 2.002267729450327 F 3 } F 2.002267729450327 F 3 #
-313 edge $-1 $329 $321 $252 $314 forward #
-314 intcurve-curve $-1 forward { exactcur nubs 1 open 2
        2.002267729450327 1 3 1 
        -2.8682984718885178 -5.9450000000000003 0.52951130589546813 
        -2.8682984718885169 0 0.94512302738698917 
        0
        null_surface
        null_surface
        nullbs
        nullbs
        I I
        0
        0
        0
        F 2.002267729450327 F 3 } F 2.002267729450327 F 3 #
-315 vertex $-1 $291 $316 #
-316 point $-1 0 0 0.41655635861367024 #
-317 vertex $-1 $293 $318 #
-318 point $-1 -2.8682984718885165 0 0.84512302738698919 #
-319 vertex $-1 $295 $320 #
-320 point $-1 0 0 0.51655635861367033 #
-321 vertex $-1 $299 $322 #
-322 point $-1 -2.8682984718885169 0 0.94512302738698917 #
-323 vertex $-1 $305 $324 #
-324 point $-1 0 -5.9450000000000003 0.00084146160950056867 #
-325 vertex $-1 $307 $326 #
-326 point $-1 -2.8682984718885161 -5.9450000000000003 0.42951130589546793 #
-327 vertex $-1 $305 $328 #
-328 point $-1 -5.5511151231257827e-16 -5.9450000000000003 0.10084146160950044 #
-329 vertex $-1 $307 $330 #
-330 point $-1 -2.8682984718885178 -5.9450000000000003 0.52951130589546813 #
-331 transform $-1 1 0 0 0 1 0 0 0 1 0 0 0 1 0 0 0 #
-332 lump $-1 $-1 $333 $3 #
-333 shell $-1 $-1 $-1 $334 $-1 $332 #
-334 face $-1 $345 $336 $333 $-1 $335 forward single #
-335 spline-surface $-1 forward { exactsur nubs 1 1 open open none none 2 2
        0 1 2.899999999999999 1 
        -0.029895299577892942 1 5.9595170840925693 1 
        0 -0.029822476130653704 0.41864174929374831 
        -2.8682984718885156 7.1959464792506478e-06 0.8452259342159858 
        0 5.9450000000000021 0.00084146160950082649 
        -2.8682984718885156 5.974829672077135 0.42742564653173826 
        0
        0
        0
        0
        0
        0
        0
        F 0 F 2.899999999999999 F -0.029895299577892942 F 5.9595170840925693 } F 0 F 2.899999999999999 F -0.029895299577892942 F 5.9595170840925693 #
-336 loop $-1 $-1 $337 $334 #
-337 coedge $-1 $339 $343 $352 $400 reversed $336 $338 #
-338 pcurve $-1 0 forward { exppc nubs 1 open 2
        -0.99797995735246636 1 -0 1 
        0 5.9595170840925693 
        0 0 
        0
        spline 0 { ref 126 } F 0 F 2.899999999999999 F -0.029895299577892942 F 5.9595170840925693 
        } 0 0 #
-339 coedge $-1 $341 $337 $376 $402 reversed $336 $340 #
-340 pcurve $-1 0 forward { exppc nubs 1 open 2
        -4 1 -3 1 
        0 0 
        2.8999847885936219 -0.029895299577892942 
        0
        spline 0 { ref 126 } F 0 F 2.899999999999999 F -0.029895299577892942 F 5.9595170840925693 
        } 0 0 #
-341 coedge $-1 $343 $339 $359 $420 reversed $336 $342 #
-342 pcurve $-1 0 forward { exppc nubs 1 open 2
        -3 1 -2.0022677294503266 1 
        2.8999847885936219 -0.029895299577892942 
        2.8999999655046445 5.9296145873547381 
        0
        spline 0 { ref 126 } F 0 F 2.899999999999999 F -0.029895299577892942 F 5.9595170840925693 
        } 0 0 #
-343 coedge $-1 $337 $341 $392 $412 reversed $336 $344 #
-344 pcurve $-1 0 forward { exppc nubs 3 open 2
        -2.9001541442209691 3 -0 3 
        2.8999999655046445 5.9296145873547381 
        1.9333333103363757 5.9395820755989339 
        0.96666665516818717 5.9495495798457512 
        0 5.9595170840925693 
        0
        spline 0 { ref 126 } F 0 F 2.899999999999999 F -0.029895299577892942 F 5.9595170840925693 
        } 0 0 #
-345 face $-1 $356 $347 $333 $-1 $346 forward single #
-346 spline-surface $-1 forward { exactsur nubs 1 1 open open none none 2 2
        0 1 0.10000000000000009 1 
        -0.99797995735246636 1 -0 1 
        -8.8817841970012523e-16 5.9450000000000003 0.0008414616095013816 
        -8.8817841970012523e-16 5.9450000000000003 0.10084146160950147 
        -8.8817841970012523e-16 0 0.41655635861367069 
        -8.8817841970012523e-16 0 0.51655635861367077 
        0
        0
        0
        0
        0
        0
        0
        F 0 F 0.10000000000000009 F -0.99797995735246636 F -0 } F 0 F 0.10000000000000009 F -0.99797995735246636 F -0 #
-347 loop $-1 $-1 $348 $345 #
-348 coedge $-1 $350 $354 $387 $406 reversed $347 $349 #
-349 pcurve $-1 0 forward { exppc nubs 1 open 2
        -0.99797995735246636 1 -0 1 
        0.10000000000000009 -0.99797995735246636 
        0.10000000000000009 0 
        0
        spline 0 { ref 131 } F 0 F 0.10000000000000009 F -0.99797995735246636 F -0 
        } 0 0 #
-350 coedge $-1 $352 $348 $370 $404 reversed $347 $351 #
-351 pcurve $-1 0 forward { exppc nubs 1 open 2
        -0.10000000000000009 1 -0 1 
        0.10000000000000009 0 
        0 0 
        0
        spline 0 { ref 131 } F 0 F 0.10000000000000009 F -0.99797995735246636 F -0 
        } 0 0 #
-352 coedge $-1 $354 $350 $337 $400 forward $347 $353 #
-353 pcurve $-1 0 forward { exppc nubs 1 open 2
        -0 1 0.99797995735246636 1 
        0 0 
        0 -0.99797995735246636 
        0
        spline 0 { ref 131 } F 0 F 0.10000000000000009 F -0.99797995735246636 F -0 
        } 0 0 #
-354 coedge $-1 $348 $352 $398 $414 reversed $347 $355 #
-355 pcurve $-1 0 forward { exppc nubs 1 open 2
        0 1 0.10000000000000009 1 
        0 -0.99797995735246636 
        0.10000000000000009 -0.99797995735246636 
        0
        spline 0 { ref 131 } F 0 F 0.10000000000000009 F -0.99797995735246636 F -0 
        } 0 0 #
-356 face $-1 $367 $358 $333 $-1 $357 forward single #
-357 spline-surface $-1 forward { exactsur nubs 1 1 open open none none 2 2
        0 1 0.10000000000000009 1 
        -3 1 -2.0022677294503266 1 
        -2.8682984718885161 -8.8817841970012523e-16 0.84512302738698919 
        -2.8682984718885161 -8.8817841970012523e-16 0.94512302738698928 
        -2.8682984718885161 5.9450000000000003 0.42951130589546804 
        -2.8682984718885161 5.9450000000000003 0.52951130589546813 
        0
        0
        0
        0
        0
        0
        0
        F 0 F 0.10000000000000009 F -3 F -2.0022677294503266 } F 0 F 0.10000000000000009 F -3 F -2.0022677294503266 #
-358 loop $-1 $-1 $359 $356 #
-359 coedge $-1 $361 $365 $341 $420 forward $358 $360 #
-360 pcurve $-1 0 forward { exppc nubs 1 open 2
        2.0022677294503266 1 3 1 
        0 -2.0022677294503266 
        0 -3 
        0
        spline 0 { ref 136 } F 0 F 0.10000000000000009 F -3 F -2.0022677294503266 
        } 0 0 #
-361 coedge $-1 $363 $359 $374 $408 reversed $358 $362 #
-362 pcurve $-1 0 forward { exppc nubs 1 open 2
        -0 1 0.10000000000000009 1 
        0 -3 
        0.10000000000000009 -3 
        0
        spline 0 { ref 136 } F 0 F 0.10000000000000009 F -3 F -2.0022677294503266 
        } 0 0 #
-363 coedge $-1 $365 $361 $383 $422 reversed $358 $364 #
-364 pcurve $-1 0 forward { exppc nubs 1 open 2
        -3 1 -2.0022677294503266 1 
        0.10000000000000009 -3 
        0.10000000000000009 -2.0022677294503266 
        0
        spline 0 { ref 136 } F 0 F 0.10000000000000009 F -3 F -2.0022677294503266 
        } 0 0 #
-365 coedge $-1 $359 $363 $394 $416 reversed $358 $366 #
-366 pcurve $-1 0 forward { exppc nubs 1 open 2
        -0.10000000000000009 1 -0 1 
        0.10000000000000009 -2.0022677294503266 
        0 -2.0022677294503266 
        0
        spline 0 { ref 136 } F 0 F 0.10000000000000009 F -3 F -2.0022677294503266 
        } 0 0 #
-367 face $-1 $378 $369 $333 $-1 $368 forward single #
-368 spline-surface $-1 forward { exactsur nubs 1 1 open open none none 2 2
        0 1 0.10000000000000009 1 
        -4 1 -3 1 
        -8.8817841970012523e-16 -8.8817841970012523e-16 0.41655635861367069 
        -8.8817841970012523e-16 -8.8817841970012523e-16 0.51655635861367077 
        -2.8682984718885169 -8.8817841970012523e-16 0.84512302738698963 
        -2.8682984718885169 -8.8817841970012523e-16 0.94512302738698972 
        0
        0
        0
        0
        0
        0
        0
        F 0 F 0.10000000000000009 F -4 F -3 } F 0 F 0.10000000000000009 F -4 F -3 #
-369 loop $-1 $-1 $370 $367 #
-370 coedge $-1 $372 $376 $350 $404 forward $369 $371 #
-371 pcurve $-1 0 forward { exppc nubs 1 open 2
        -0 1 0.10000000000000009 1 
        0 -4 
        0.10000000000000009 -4 
        0
        spline 0 { ref 141 } F 0 F 0.10000000000000009 F -4 F -3 
        } 0 0 #
-372 coedge $-1 $374 $370 $385 $410 reversed $369 $373 #
-373 pcurve $-1 0 forward { exppc nubs 1 open 2
        -4 1 -3 1 
        0.10000000000000009 -4 
        0.10000000000000009 -3 
        0
        spline 0 { ref 141 } F 0 F 0.10000000000000009 F -4 F -3 
        } 0 0 #
-374 coedge $-1 $376 $372 $361 $408 forward $369 $375 #
-375 pcurve $-1 0 forward { exppc nubs 1 open 2
        -0.10000000000000009 1 -0 1 
        0.10000000000000009 -3 
        0 -3 
        0
        spline 0 { ref 141 } F 0 F 0.10000000000000009 F -4 F -3 
        } 0 0 #
-376 coedge $-1 $370 $374 $339 $402 forward $369 $377 #
-377 pcurve $-1 0 forward { exppc nubs 1 open 2
        3 1 4 1 
        0 -3 
        0 -4 
        0
        spline 0 { ref 141 } F 0 F 0.10000000000000009 F -4 F -3 
        } 0 0 #
-378 face $-1 $389 $380 $333 $-1 $379 forward single #
-379 spline-surface $-1 forward { exactsur nubs 1 1 open open none none 2 2
        -0.029895299577892942 1 5.9595170840925693 1 
        0 1 2.899999999999999 1 
        0 -0.029822476130653704 0.5186417492937484 
        0 5.9450000000000021 0.10084146160950092 
        -2.8682984718885156 7.1959464792506478e-06 0.94522593421598589 
        -2.8682984718885156 5.974829672077135 0.5274256465317384 
        0
        0
        0
        0
        0
        0
        0
        F -0.029895299577892942 F 5.9595170840925693 F 0 F 2.899999999999999 } F -0.029895299577892942 F 5.9595170840925693 F 0 F 2.899999999999999 #
-380 loop $-1 $-1 $381 $378 #
-381 coedge $-1 $383 $387 $396 $418 forward $380 $382 #
-382 pcurve $-1 0 forward { exppc nubs 3 open 2
        0 3 2.9001541442209682 3 
        5.9595170840925693 0 
        5.9495495798457512 0.96666665516818751 
        5.9395820755989348 1.9333333103363766 
        5.9296145873547381 2.8999999655046445 
        0
        spline 0 { ref 146 } F -0.029895299577892942 F 5.9595170840925693 F 0 F 2.899999999999999 
        } 0 0 #
-383 coedge $-1 $385 $381 $363 $422 forward $380 $384 #
-384 pcurve $-1 0 forward { exppc nubs 1 open 2
        2.0022677294503266 1 3 1 
        5.9296145873547381 2.8999999655046445 
        -0.029895299577892942 2.8999847885936219 
        0
        spline 0 { ref 146 } F -0.029895299577892942 F 5.9595170840925693 F 0 F 2.899999999999999 
        } 0 0 #
-385 coedge $-1 $387 $383 $372 $410 forward $380 $386 #
-386 pcurve $-1 0 forward { exppc nubs 1 open 2
        3 1 4 1 
        -0.029895299577892942 2.8999847885936219 
        0 0 
        0
        spline 0 { ref 146 } F -0.029895299577892942 F 5.9595170840925693 F 0 F 2.899999999999999 
        } 0 0 #
-387 coedge $-1 $381 $385 $348 $406 forward $380 $388 #
-388 pcurve $-1 0 forward { exppc nubs 1 open 2
        0 1 0.99797995735246636 1 
        0 0 
        5.9595170840925693 0 
        0
        spline 0 { ref 146 } F -0.029895299577892942 F 5.9595170840925693 F 0 F 2.899999999999999 
        } 0 0 #
-389 face $-1 $-1 $391 $333 $-1 $390 forward single #
-390 spline-surface $-1 forward { exactsur nubs 1 1 open open none none 2 2
        2.2825187175481019 1 5.1508171894366201 1 
        1.0807526897860975 1 1.6094225340720645 1 
        -2.8682984718885174 5.9450000000000003 0.52951130589546791 
        0 5.9450000000000003 0.52951130589546791 
        -2.8682984718885183 5.9450000000000003 0.00084146160950104854 
        0 5.9450000000000003 0.00084146160950104854 
        0
        0
        0
        0
        0
        0
        0
        F 2.2825187175481019 F 5.1508171894366201 F 1.0807526897860975 F 1.6094225340720645 } F 2.2825187175481019 F 5.1508171894366201 F 1.0807526897860975 F 1.6094225340720645 #
-391 loop $-1 $-1 $392 $389 #
-392 coedge $-1 $394 $398 $343 $412 forward $391 $393 #
-393 pcurve $-1 0 forward { exppc nubs 3 open 2
        -0 3 2.9001541442209691 3 
        5.1508171894366193 1.6094225340720645 
        4.194717698807116 1.466532507808094 
        3.23861820817761 1.3236424815441235 
        2.2825187175481045 1.1807526897860974 
        0
        spline 0 { ref 151 } F 2.2825187175481019 F 5.1508171894366201 F 1.0807526897860975 F 1.6094225340720645 
        } 0 0 #
-394 coedge $-1 $396 $392 $365 $416 forward $391 $395 #
-395 pcurve $-1 0 forward { exppc nubs 1 open 2
        0 1 0.10000000000000009 1 
        2.2825187175481045 1.1807526897860974 
        2.2825187175481019 1.0807526897860975 
        0
        spline 0 { ref 151 } F 2.2825187175481019 F 5.1508171894366201 F 1.0807526897860975 F 1.6094225340720645 
        } 0 0 #
-396 coedge $-1 $398 $394 $381 $418 reversed $391 $397 #
-397 pcurve $-1 0 forward { exppc nubs 3 open 2
        -2.9001541442209682 3 -0 3 
        2.2825187175481019 1.0807526897860975 
        3.23861820817761 1.2236424815441229 
        4.1947176988071151 1.3665325078080934 
        5.1508171894366201 1.5094225340720644 
        0
        spline 0 { ref 151 } F 2.2825187175481019 F 5.1508171894366201 F 1.0807526897860975 F 1.6094225340720645 
        } 0 0 #
-398 coedge $-1 $392 $396 $354 $414 forward $391 $399 #
-399 pcurve $-1 0 forward { exppc nubs 1 open 2
        -0.10000000000000009 1 -0 1 
        5.1508171894366201 1.5094225340720644 
        5.1508171894366193 1.6094225340720645 
        0
        spline 0 { ref 151 } F 2.2825187175481019 F 5.1508171894366201 F 1.0807526897860975 F 1.6094225340720645 
        } 0 0 #
-400 edge $-1 $424 $432 $337 $401 forward #
-401 intcurve-curve $-1 forward { exactcur nubs 1 open 2
        0 1 0.99797995735246636 1 
        0 0 0.41655635861367024 
        -3.3306690738754696e-16 5.9450000000000003 0.00084146160950093361 
        0
        null_surface
        null_surface
        nullbs
        nullbs
        I I
        0
        0
        0
        F 0 F 0.99797995735246636 } F 0 F 0.99797995735246636 #
-402 edge $-1 $426 $424 $339 $403 forward #
-403 intcurve-curve $-1 forward { exactcur nubs 1 open 2
        3 1 4 1 
        -2.8682984718885165 0 0.84512302738698919 
        0 0 0.41655635861367024 
        0
        null_surface
        null_surface
        nullbs
        nullbs
        I I
        0
        0
        0
        F 3 F 4 } F 3 F 4 #
-404 edge $-1 $424 $428 $350 $405 forward #
-405 intcurve-curve $-1 forward { exactcur nubs 1 open 2
        0 1 0.10000000000000009 1 
        0 0 0.41655635861367024 
        0 0 0.51655635861367033 
        0
        null_surface
        null_surface
        nullbs
        nullbs
        I I
        0
        0
        0
        F 0 F 0.10000000000000009 } F 0 F 0.10000000000000009 #
-406 edge $-1 $428 $436 $348 $407 forward #
-407 intcurve-curve $-1 forward { exactcur nubs 1 open 2
        0 1 0.99797995735246636 1 
        0 0 0.51655635861367033 
        0 5.9450000000000003 0.10084146160950103 
        0
        null_surface
        null_surface
        nullbs
        nullbs
        I I
        0
        0
        0
        F 0 F 0.99797995735246636 } F 0 F 0.99797995735246636 #
-408 edge $-1 $430 $426 $361 $409 forward #
-409 intcurve-curve $-1 forward { exactcur nubs 1 open 2
        -0.10000000000000009 1 -0 1 
        -2.8682984718885169 0 0.94512302738698917 
        -2.8682984718885165 0 0.84512302738698919 
        0
        null_surface
        null_surface
        nullbs
        nullbs
        I I
        0
        0
        0
        F -0.10000000000000009 F -0 } F -0.10000000000000009 F -0 #
-410 edge $-1 $430 $428 $372 $411 forward #
-411 intcurve-curve $-1 forward { exactcur nubs 1 open 2
        3 1 4 1 
        -2.8682984718885169 0 0.94512302738698917 
        0 0 0.51655635861367033 
        0
        null_surface
        null_surface
        nullbs
        nullbs
        I I
        0
        0
        0
        F 3 F 4 } F 3 F 4 #
-412 edge $-1 $432 $434 $392 $413 forward #
-413 intcurve-curve $-1 forward { exactcur nubs 3 open 2
        0 3 2.9001541442209691 3 
        -3.3306690738754696e-16 5.9450000000000003 0.00084146160950093361 
        -0.95609948494311403 5.9450000000000003 0.1437314870236347 
        -1.9121989698862285 5.9450000000000003 0.28662151243776829 
        -2.8682984718885161 5.9450000000000012 0.42951130589546799 
        0
        null_surface
        null_surface
        nullbs
        nullbs
        I I
        0
        0
        0
        F 0 F 2.9001541442209691 } F 0 F 2.9001541442209691 #
-414 edge $-1 $436 $432 $354 $415 forward #
-415 intcurve-curve $-1 forward { exactcur nubs 1 open 2
        -0.10000000000000009 1 -0 1 
        0 5.9450000000000003 0.10084146160950103 
        -3.3306690738754696e-16 5.9450000000000003 0.00084146160950093361 
        0
        null_surface
        null_surface
        nullbs
        nullbs
        I I
        0
        0
        0
        F -0.10000000000000009 F -0 } F -0.10000000000000009 F -0 #
-416 edge $-1 $434 $438 $365 $417 forward #
-417 intcurve-curve $-1 forward { exactcur nubs 1 open 2
        0 1 0.10000000000000009 1 
        -2.8682984718885161 5.9450000000000012 0.42951130589546799 
        -2.8682984718885178 5.9450000000000003 0.52951130589546791 
        0
        null_surface
        null_surface
        nullbs
        nullbs
        I I
        0
        0
        0
        F 0 F 0.10000000000000009 } F 0 F 0.10000000000000009 #
-418 edge $-1 $436 $438 $396 $419 forward #
-419 intcurve-curve $-1 forward { exactcur nubs 3 open 2
        0 3 2.9001541442209682 3 
        0 5.9450000000000003 0.10084146160950103 
        -0.95609948494311381 5.9450000000000003 0.2437314870236349 
        -1.9121989698862281 5.9450000000000003 0.38662151243776866 
        -2.8682984718885178 5.9450000000000003 0.52951130589546791 
        0
        null_surface
        null_surface
        nullbs
        nullbs
        I I
        0
        0
        0
        F 0 F 2.9001541442209682 } F 0 F 2.9001541442209682 #
-420 edge $-1 $434 $426 $341 $421 forward #
-421 intcurve-curve $-1 forward { exactcur nubs 1 open 2
        2.0022677294503266 1 3 1 
        -2.8682984718885161 5.9450000000000012 0.42951130589546799 
        -2.8682984718885165 0 0.84512302738698919 
        0
        null_surface
        null_surface
        nullbs
        nullbs
        I I
        0
        0
        0
        F 2.0022677294503266 F 3 } F 2.0022677294503266 F 3 #
-422 edge $-1 $438 $430 $363 $423 forward #
-423 intcurve-curve $-1 forward { exactcur nubs 1 open 2
        2.0022677294503266 1 3 1 
        -2.8682984718885178 5.9450000000000003 0.52951130589546791 
        -2.8682984718885169 0 0.94512302738698917 
        0
        null_surface
        null_surface
        nullbs
        nullbs
        I I
        0
        0
        0
        F 2.0022677294503266 F 3 } F 2.0022677294503266 F 3 #
-424 vertex $-1 $400 $425 #
-425 point $-1 0 0 0.41655635861367024 #
-426 vertex $-1 $402 $427 #
-427 point $-1 -2.8682984718885165 0 0.84512302738698919 #
-428 vertex $-1 $404 $429 #
-429 point $-1 0 0 0.51655635861367033 #
-430 vertex $-1 $408 $431 #
-431 point $-1 -2.8682984718885169 0 0.94512302738698917 #
-432 vertex $-1 $414 $433 #
-433 point $-1 -3.3306690738754696e-16 5.9450000000000003 0.00084146160950093361 #
-434 vertex $-1 $416 $435 #
-435 point $-1 -2.8682984718885161 5.9450000000000012 0.42951130589546799 #
-436 vertex $-1 $414 $437 #
-437 point $-1 0 5.9450000000000003 0.10084146160950103 #
-438 vertex $-1 $416 $439 #
-439 point $-1 -2.8682984718885178 5.9450000000000003 0.52951130589546791 #
End-of-ACIS-data
